<svg width="21" height="20" viewBox="0 0 21 20" fill="none" xmlns="http://www.w3.org/2000/svg">
<path d="M16.8875 14.0092C16.6567 14.5471 16.3717 15.0601 16.0367 15.5401C15.5892 16.1792 15.2217 16.6209 14.94 16.8667C14.5025 17.2684 14.0325 17.4751 13.53 17.4867C13.17 17.4867 12.735 17.3842 12.2283 17.1759C11.72 16.9684 11.2533 16.8667 10.8258 16.8667C10.3783 16.8667 9.89834 16.9684 9.38417 17.1759C8.87084 17.3842 8.45584 17.4934 8.13834 17.5034C7.65751 17.5242 7.17667 17.3126 6.6975 16.8667C6.39167 16.6001 6.00917 16.1417 5.55001 15.4934C5.05834 14.8026 4.65417 13.9984 4.33751 13.0842C3.99834 12.0951 3.82834 11.1384 3.82834 10.2117C3.82834 9.15089 4.05751 8.23506 4.51667 7.46839C4.86396 6.86628 5.36046 6.36376 5.95834 6.00923C6.54789 5.65562 7.22091 5.46522 7.90834 5.45756C8.29167 5.45756 8.79417 5.57589 9.41667 5.80923C10.0392 6.04256 10.4392 6.16089 10.6133 6.16089C10.745 6.16089 11.1875 6.02173 11.9408 5.74589C12.6517 5.49006 13.2517 5.38423 13.7433 5.42589C15.0767 5.53339 16.0775 6.05839 16.7433 7.00506C15.5517 7.72756 14.9625 8.73839 14.9742 10.0359C14.9842 11.0467 15.3517 11.8876 16.0717 12.5551C16.39 12.8597 16.7614 13.1034 17.1675 13.2742C17.0792 13.5301 16.9858 13.7742 16.8875 14.0092ZM13.8317 1.98339C13.8317 2.77506 13.5417 3.51506 12.9658 4.19923C12.2692 5.01256 11.4275 5.48339 10.515 5.40923C10.5031 5.30968 10.4972 5.20949 10.4975 5.10923C10.4975 4.34839 10.8275 3.53506 11.4167 2.86923C11.71 2.53256 12.0833 2.25173 12.5358 2.02839C12.9875 1.80839 13.4142 1.68673 13.8158 1.66589C13.8267 1.77256 13.8317 1.87839 13.8317 1.98339Z" fill="#B8F1AD"/>
</svg>
