<svg width="52" height="52" viewBox="0 0 52 52" fill="none" xmlns="http://www.w3.org/2000/svg">
<path d="M0.5 8C0.5 3.85786 3.85786 0.5 8 0.5H44C48.1421 0.5 51.5 3.85786 51.5 8V44C51.5 48.1421 48.1421 51.5 44 51.5H8C3.85786 51.5 0.5 48.1421 0.5 44V8Z" fill="white"/>
<path d="M0.5 8C0.5 3.85786 3.85786 0.5 8 0.5H44C48.1421 0.5 51.5 3.85786 51.5 8V44C51.5 48.1421 48.1421 51.5 44 51.5H8C3.85786 51.5 0.5 48.1421 0.5 44V8Z" stroke="#141414"/>
<path d="M9.5 35C9.075 35 8.71875 34.8563 8.43125 34.5688C8.14375 34.2812 8 33.925 8 33.5V32.6375C8 31.5625 8.55 30.6875 9.65 30.0125C10.75 29.3375 12.2 29 14 29C14.325 29 14.6375 29.0062 14.9375 29.0187C15.2375 29.0312 15.525 29.0625 15.8 29.1125C15.45 29.6375 15.1875 30.1875 15.0125 30.7625C14.8375 31.3375 14.75 31.9375 14.75 32.5625V35H9.5ZM18.5 35C18.075 35 17.7188 34.8563 17.4312 34.5688C17.1438 34.2812 17 33.925 17 33.5V32.5625C17 31.7625 17.2188 31.0313 17.6562 30.3688C18.0938 29.7063 18.7125 29.125 19.5125 28.625C20.3125 28.125 21.2688 27.75 22.3813 27.5C23.4938 27.25 24.7 27.125 26 27.125C27.325 27.125 28.5438 27.25 29.6562 27.5C30.7687 27.75 31.725 28.125 32.525 28.625C33.325 29.125 33.9375 29.7063 34.3625 30.3688C34.7875 31.0313 35 31.7625 35 32.5625V33.5C35 33.925 34.8562 34.2812 34.5687 34.5688C34.2812 34.8563 33.925 35 33.5 35H18.5ZM37.25 35V32.5625C37.25 31.9125 37.1687 31.3 37.0062 30.725C36.8438 30.15 36.6 29.6125 36.275 29.1125C36.55 29.0625 36.8313 29.0312 37.1188 29.0187C37.4062 29.0062 37.7 29 38 29C39.8 29 41.25 29.3313 42.35 29.9938C43.45 30.6563 44 31.5375 44 32.6375V33.5C44 33.925 43.8563 34.2812 43.5687 34.5688C43.2812 34.8563 42.925 35 42.5 35H37.25ZM14 27.5C13.175 27.5 12.4688 27.2063 11.8813 26.6187C11.2938 26.0312 11 25.325 11 24.5C11 23.65 11.2938 22.9375 11.8813 22.3625C12.4688 21.7875 13.175 21.5 14 21.5C14.85 21.5 15.5625 21.7875 16.1375 22.3625C16.7125 22.9375 17 23.65 17 24.5C17 25.325 16.7125 26.0312 16.1375 26.6187C15.5625 27.2063 14.85 27.5 14 27.5ZM38 27.5C37.175 27.5 36.4688 27.2063 35.8812 26.6187C35.2937 26.0312 35 25.325 35 24.5C35 23.65 35.2937 22.9375 35.8812 22.3625C36.4688 21.7875 37.175 21.5 38 21.5C38.85 21.5 39.5625 21.7875 40.1375 22.3625C40.7125 22.9375 41 23.65 41 24.5C41 25.325 40.7125 26.0312 40.1375 26.6187C39.5625 27.2063 38.85 27.5 38 27.5ZM26 26C24.75 26 23.6875 25.5625 22.8125 24.6875C21.9375 23.8125 21.5 22.75 21.5 21.5C21.5 20.225 21.9375 19.1562 22.8125 18.2938C23.6875 17.4313 24.75 17 26 17C27.275 17 28.3438 17.4313 29.2062 18.2938C30.0688 19.1562 30.5 20.225 30.5 21.5C30.5 22.75 30.0688 23.8125 29.2062 24.6875C28.3438 25.5625 27.275 26 26 26Z" fill="#141414"/>
</svg>
