<svg width="72" height="60" viewBox="0 0 72 60" fill="none" xmlns="http://www.w3.org/2000/svg">
<path d="M7.81093 3.01417L7.81104 3.01411C8.13232 2.83264 8.7397 2.63916 9.1766 2.53777C9.63526 2.43133 10.3022 2.33716 10.7081 2.33348L7.81093 3.01417ZM7.81093 3.01417L7.8097 3.01486C7.65558 3.10193 7.29121 3.30779 7.10814 3.73591C6.94142 4.1258 7.00939 4.51613 7.03993 4.69149C7.04051 4.69481 7.04108 4.69805 7.04162 4.70122L7.04164 4.70133M7.81093 3.01417L7.04164 4.70133M7.04164 4.70133C7.04155 4.70081 7.04188 4.70302 7.04269 4.70841C7.04509 4.72444 7.0517 4.76862 7.06394 4.8527C7.07876 4.95456 7.09963 5.09937 7.12627 5.28525C7.17954 5.65686 7.25557 6.19047 7.35189 6.86847C7.5445 8.22436 7.81805 10.1564 8.15238 12.522C8.82103 17.2531 9.73268 23.7177 10.726 30.7736C12.1745 41.0637 13.089 47.4892 13.6637 51.3565C13.9508 53.2885 14.1544 54.5906 14.298 55.4193C14.3694 55.8312 14.4285 56.1412 14.478 56.3583C14.502 56.4636 14.5289 56.5704 14.5598 56.664C14.5746 56.7086 14.5991 56.7777 14.6359 56.8519C14.6363 56.8527 14.6368 56.8538 14.6375 56.8553C14.6549 56.8912 14.7648 57.1196 15.0163 57.2783L15.55 56.4326M7.04164 4.70133L15.55 56.4326M15.55 56.4326L15.0163 57.2783C15.362 57.4965 15.7864 57.5838 16.1263 57.6253C16.4969 57.6706 16.9088 57.6766 17.3182 57.6534C18.12 57.6077 19.0422 57.4416 19.7455 57.1321L19.7457 57.1321C19.8694 57.0776 20.0091 57.0144 20.1325 56.9438C20.2522 56.8753 20.4407 56.754 20.5935 56.5478C20.9354 56.0864 20.83 55.5707 20.7981 55.4144C20.7964 55.4062 20.7949 55.399 20.7938 55.3929L20.7937 55.3926M15.55 56.4326L20.7937 55.3926M20.7937 55.3926C20.794 55.3939 20.792 55.3804 20.7876 55.3506C20.777 55.2792 20.7527 55.1139 20.7125 54.8356C20.6591 54.4661 20.5829 53.9337 20.4863 53.256C20.2931 51.9007 20.0186 49.9659 19.6831 47.5945C19.0121 42.852 18.0971 36.3644 17.1001 29.2767L16.1098 29.416M20.7937 55.3926L16.1098 29.416M16.1098 29.416L17.1001 29.2767C16.1029 22.1883 15.1901 15.7387 14.5227 11.0576M16.1098 29.416L14.5227 11.0576M25.2906 4.34197L25.2906 4.34197C26.8621 4.16979 29.6548 4.1535 32.2963 4.23744C34.9189 4.32078 37.5519 4.50744 38.7698 4.77777C38.7698 4.77778 38.7698 4.77778 38.7699 4.77779L39.1953 4.8722L39.8639 5.02058L39.9672 5.69762L40.5073 9.23747C40.6553 10.2074 40.797 11.0935 40.9059 11.739C40.925 11.8523 40.943 11.9577 40.9598 12.0543C40.9835 12.0557 41.0078 12.0571 41.0326 12.0586C41.5316 12.0875 42.2151 12.1199 42.9617 12.1485C47.7479 12.3323 54.1518 11.9302 57.7491 11.2312L57.7492 11.2312C58.1755 11.1484 58.5799 11.0827 58.8917 11.0443C59.0442 11.0255 59.194 11.0108 59.3203 11.0062C59.379 11.004 59.4652 11.0026 59.5564 11.0117C59.5993 11.016 59.6812 11.026 59.7767 11.0548L59.7792 11.0556C59.8353 11.0725 60.1084 11.1548 60.3099 11.431C60.3959 11.5488 60.4361 11.6614 60.4417 11.6772L60.4422 11.6787C60.4553 11.7142 60.4638 11.7435 60.468 11.7584C60.4769 11.79 60.4832 11.8178 60.4867 11.8335C60.4944 11.8679 60.5017 11.9059 60.5082 11.941C60.5217 12.0139 60.5386 12.1129 60.5582 12.2322C60.5978 12.4727 60.6519 12.8173 60.7183 13.2488C60.8511 14.113 61.0345 15.3376 61.251 16.801C61.684 19.7283 62.2502 23.6171 62.8105 27.5028C63.3707 31.3885 63.9252 35.2722 64.3348 38.1892C64.5396 39.6474 64.7084 40.8656 64.8237 41.7221C64.8812 42.1498 64.9258 42.4904 64.955 42.7266C64.9694 42.8436 64.9808 42.941 64.9881 43.0125C64.9915 43.0463 64.9953 43.0857 64.9975 43.1225C64.9984 43.1377 65.0005 43.1732 64.9999 43.2151C64.9997 43.2324 64.9988 43.2817 64.9903 43.3433C64.9851 43.3769 64.9667 43.4618 64.9518 43.513C64.9193 43.6003 64.7787 43.835 64.6527 43.9655L64.6516 43.9665C64.5117 44.087 64.3607 44.1462 64.3352 44.1562L64.3324 44.1573C64.2774 44.1795 64.2225 44.1979 64.1776 44.2121C64.0855 44.2411 63.9746 44.2713 63.8574 44.3012C63.6198 44.3618 63.3069 44.4333 62.9574 44.5082C62.2567 44.6584 61.3761 44.8291 60.5909 44.9609C54.1756 46.0387 46.1632 46.0743 39.1914 45.0632L38.1262 44.9088L37.4858 44.816L37.3081 44.1938L36.6615 41.9298L37.6231 41.6552L36.6615 41.9298L36.2242 40.3986L35.2113 40.4086C31.9854 40.4404 26.0296 41.1078 22.5918 41.8252M25.2906 4.34197L19.9977 41.32L20.9449 40.9992L19.9984 41.3221C20.1273 41.6999 20.4181 41.8754 20.574 41.9439C20.7297 42.0124 20.8725 42.0319 20.951 42.0396C21.1153 42.0555 21.2849 42.0434 21.4208 42.029C21.7094 41.9983 22.1034 41.9271 22.5918 41.8252M25.2906 4.34197C22.0112 4.70133 18.4942 5.51558 16.3734 6.43872L16.3733 6.43876M25.2906 4.34197L16.3733 6.43876M22.5918 41.8252L22.3875 40.8463L22.5918 41.8252C22.5918 41.8252 22.5918 41.8252 22.5918 41.8252ZM16.3733 6.43876C16.162 6.53077 15.9725 6.61395 15.8213 6.68934M16.3733 6.43876L15.8213 6.68934M27.6645 14.8251C27.6627 14.8157 27.6609 14.8064 27.6591 14.797C27.5386 14.1669 27.3832 13.3104 27.2218 12.3785L27.2218 12.3785L26.7835 9.8492C26.3463 9.85734 25.5795 9.90805 25.1009 9.96116L27.6645 14.8251ZM27.6645 14.8251C27.0899 14.886 26.343 14.9735 25.5556 15.074C25.5555 15.074 25.5555 15.074 25.5555 15.074L25.682 16.066L27.6645 14.8251ZM29.9069 28.3684C29.8821 28.2158 29.8526 28.0375 29.8194 27.839C29.7234 27.2651 29.597 26.5283 29.4634 25.7677C29.3291 25.003 29.2069 24.2917 29.1181 23.7613C29.108 23.7011 29.0984 23.6431 29.0892 23.5876C28.7524 23.6127 28.2892 23.6632 27.6772 23.7436L27.6771 23.7436C26.0526 23.9569 23.6352 24.4204 22.7467 24.6702C22.8413 25.3092 23.0371 26.5063 23.2364 27.6773C23.3551 28.3755 23.4727 29.0504 23.5662 29.5684L29.9069 28.3684ZM29.9069 28.3684L27.871 28.7261C26.233 29.0139 24.36 29.3762 23.7123 29.5335L29.9069 28.3684ZM56.028 18.9019C56.1433 19.6744 56.256 20.4191 56.335 20.9326C56.0719 20.983 55.6965 21.0452 55.1615 21.1268L55.1615 21.1268C54.542 21.2214 53.2821 21.3396 52.1405 21.4224C51.6458 21.4583 51.185 21.4867 50.8213 21.5033C50.8098 21.4459 50.7978 21.3857 50.7854 21.323C50.6727 20.753 50.5294 19.9957 50.39 19.2369C50.2558 18.507 50.1259 17.78 50.0306 17.2212C50.4415 17.1741 50.9478 17.1174 51.4925 17.0579C52.847 16.9099 54.4339 16.7145 55.0192 16.6222L55.0194 16.6222C55.2395 16.5874 55.4654 16.5543 55.6661 16.5269C55.7316 16.9153 55.8203 17.5104 55.9573 18.4285C55.9796 18.5776 56.0031 18.7352 56.028 18.9019ZM56.028 18.9019L57.017 18.7542M56.028 18.9019C56.028 18.9019 56.028 18.9019 56.028 18.9019L57.017 18.7542M57.017 18.7542C57.2131 20.0677 57.3963 21.266 57.4239 21.417M57.017 18.7542L57.4239 21.417M57.4239 21.417C57.4816 21.7334 57.1959 21.8278 55.3124 22.1154C54.3768 22.2583 52.1782 22.4397 50.9286 22.4994C50.9248 22.4807 50.9212 22.4634 50.9179 22.4476C50.9124 22.4221 50.9058 22.3918 50.8989 22.3635C50.8958 22.3511 50.8894 22.3254 50.8802 22.2957C50.8761 22.2822 50.8664 22.2513 50.8514 22.2137C50.844 22.1951 50.83 22.1615 50.809 22.1212C50.7948 22.0938 50.7457 22.0003 50.6545 21.9021L50.6528 21.9003C50.6322 21.8782 50.6114 21.858 50.5911 21.8396L57.4239 21.417ZM49.0845 23.5081C49.3055 23.5257 49.4829 23.5407 49.6067 23.5521C49.6744 23.5584 49.7198 23.563 49.7455 23.566C49.7537 23.567 49.7566 23.5674 49.7557 23.5673C49.7549 23.5672 49.7516 23.5667 49.7465 23.5659C49.7433 23.5654 49.7191 23.5616 49.6863 23.5538C49.6719 23.5504 49.633 23.541 49.5842 23.5236C49.5601 23.515 49.5156 23.4981 49.4626 23.4708C49.4234 23.4506 49.3056 23.388 49.1905 23.2647L49.2853 23.1762C49.3093 23.2023 49.3366 23.2293 49.3675 23.2559L49.3682 23.2565C49.4981 23.3686 49.6254 23.42 49.6768 23.4394C49.7405 23.4634 49.7951 23.4768 49.8287 23.4841C49.8959 23.4989 49.9552 23.5055 49.9909 23.5088C50.0278 23.5123 50.0656 23.5146 50.1027 23.5162C50.3202 24.7046 50.6778 26.7351 50.8634 27.8376L44.9786 28.4204C44.0394 28.2983 43.8664 28.2384 43.81 28.0166C43.6967 27.5708 42.8854 22.5318 42.8854 22.2737C42.8854 22.049 42.951 22.0355 43.7021 22.1061C44.1513 22.1482 45.7282 22.266 47.2063 22.3678C47.884 22.4145 48.5077 22.46 48.986 22.4973C49.0004 22.5612 49.0142 22.6198 49.0269 22.6691C49.0348 22.6999 49.0462 22.7422 49.0601 22.7852C49.0665 22.8048 49.0797 22.844 49.0995 22.8898C49.1093 22.9123 49.1277 22.9529 49.1556 23.0007C49.1693 23.0242 49.2106 23.0947 49.2839 23.1746L49.1888 23.2629C49.098 23.165 49.0492 23.0719 49.0353 23.0452C49.0146 23.0056 49.001 22.9728 48.994 22.9552C48.9798 22.9196 48.971 22.8915 48.9679 22.8814C48.9609 22.8584 48.957 22.8422 48.9569 22.842C48.9566 22.8405 48.9565 22.8403 48.9568 22.8416C48.9573 22.8437 48.9587 22.8501 48.9613 22.8621C48.9689 22.898 48.9804 22.9557 48.9959 23.0359C49.0192 23.1564 49.0492 23.3168 49.0845 23.5081ZM49.0845 23.5081C49.0957 23.5687 49.1074 23.6324 49.1196 23.6989C49.2205 24.2509 49.3521 24.9862 49.4826 25.726C49.6046 26.4179 49.7255 27.1119 49.8192 27.6614M49.0845 23.5081C49.0679 23.5068 49.051 23.5055 49.0339 23.5041C48.546 23.4655 47.8745 23.4162 47.1376 23.3654C45.9579 23.2842 44.7049 23.1921 44.0131 23.1362M49.8192 27.6614C49.9711 27.6624 50.1115 27.6622 50.2375 27.661C50.4565 27.6588 50.6139 27.6533 50.708 27.6461C50.7386 27.6438 50.7515 27.642 50.7515 27.6421C50.7515 27.6422 50.7444 27.6432 50.732 27.6457L50.7312 27.6458C50.7211 27.6479 50.6483 27.6623 50.5568 27.7039C50.5115 27.7244 50.4039 27.7768 50.2932 27.8814C50.1779 27.9904 49.9924 28.2239 49.9837 28.5772L50.2168 28.5829C50.2333 28.509 50.2757 28.3615 50.3827 28.2121L49.8192 27.6614ZM49.8192 27.6614C49.4513 27.6591 49.0158 27.6504 48.5534 27.6364C47.233 27.5966 45.7776 27.5159 45.1075 27.4287C44.9437 27.4074 44.8114 27.389 44.7033 27.3722M44.0131 23.1362C44.0096 23.1132 44.0061 23.0904 44.0028 23.068C43.9641 22.8119 43.9327 22.5972 43.9112 22.4404C43.8918 22.2986 43.8869 22.2469 43.8857 22.247C43.8852 22.2471 43.8854 22.2571 43.8854 22.2737C43.8854 22.2632 43.8863 22.2962 43.8787 22.3475C43.8706 22.4012 43.8483 22.5099 43.7788 22.6334C43.7389 22.7044 43.69 22.7683 43.6347 22.8241C43.6347 22.8241 43.6346 22.8242 43.6346 22.8242C43.5848 22.8744 43.5297 22.9181 43.4711 22.9542C43.3588 23.0235 43.2605 23.049 43.2132 23.0587C43.1722 23.0672 43.1451 23.0683 43.1451 23.0684C43.1451 23.0684 43.1646 23.0677 43.2116 23.0698C43.2965 23.0738 43.4192 23.0839 43.6085 23.1017L43.6087 23.1017C43.7016 23.1104 43.8397 23.1222 44.0131 23.1362ZM44.0131 23.1362C44.0891 23.6376 44.1891 24.2733 44.2925 24.9158C44.4007 25.5877 44.5122 26.2641 44.6035 26.7993C44.6409 27.0186 44.6747 27.2127 44.7033 27.3722M44.7033 27.3722C44.6585 27.3653 44.618 27.3586 44.581 27.3521C44.5188 27.3411 44.473 27.3317 44.4394 27.3239C44.4327 27.3223 44.4268 27.3209 44.4215 27.3195C44.4137 27.3176 44.4073 27.3158 44.4022 27.3144C44.3936 27.312 44.3898 27.3107 44.3899 27.3107C44.3899 27.3107 44.3952 27.3125 44.4043 27.3165C44.4136 27.3205 44.4279 27.3273 44.446 27.3374C44.4829 27.3581 44.5354 27.3931 44.5904 27.448C44.7158 27.573 44.7635 27.7086 44.7792 27.7702L44.7791 27.77C44.7787 27.7679 44.7732 27.7444 44.7619 27.6872C44.7511 27.6325 44.7375 27.5608 44.7215 27.4728C44.7157 27.4411 44.7096 27.4075 44.7033 27.3722ZM14.5227 11.0576C14.1891 8.71721 13.9167 6.81829 13.7257 5.50249M14.5227 11.0576L13.7257 5.50249M13.7257 5.50249C13.6303 4.84483 13.555 4.33158 13.5026 3.98132M13.7257 5.50249L13.5026 3.98132M13.5026 3.98132C13.4764 3.80666 13.4556 3.67003 13.4405 3.57551M13.5026 3.98132L13.4405 3.57551M13.4405 3.57551C13.4332 3.52912 13.4265 3.48807 13.4208 3.45623M13.4405 3.57551L13.4208 3.45623M13.4208 3.45623C13.4183 3.44178 13.4144 3.4203 13.4098 3.39821M13.4208 3.45623L13.4098 3.39821M13.4098 3.39821C13.4079 3.38932 13.4028 3.36507 13.3949 3.33578M13.4098 3.39821L13.3949 3.33578M13.3949 3.33578C13.3915 3.32336 13.3822 3.28928 13.3666 3.24723M13.3949 3.33578L13.3666 3.24723M13.3666 3.24723C13.358 3.22475 13.3337 3.16878 13.3173 3.13549M13.3666 3.24723L13.3173 3.13549M13.3173 3.13549C13.2864 3.07997 13.1732 2.9268 13.0814 2.83663M13.3173 3.13549L13.0814 2.83663M13.0814 2.83663L13.0815 2.83652C13.0809 2.83601 13.0804 2.83551 13.0798 2.83501C12.912 2.69096 12.7243 2.62636 12.6748 2.60931C12.673 2.60869 12.6714 2.60813 12.6699 2.60764C12.5849 2.57811 12.4963 2.55444 12.4175 2.53561C12.2569 2.49723 12.0676 2.46264 11.8784 2.43386C11.5092 2.37767 11.0523 2.33034 10.7082 2.33348L13.0814 2.83663ZM15.8213 6.68934C15.6847 6.75746 15.4868 6.86278 15.3185 7.02319M15.8213 6.68934L15.3185 7.02319M15.3185 7.02319C15.1016 7.22986 14.959 7.50119 14.9302 7.81962M15.3185 7.02319L14.9302 7.81962M14.9302 7.81962C14.9105 8.03779 14.9528 8.24247 14.9695 8.32326M14.9302 7.81962L14.9695 8.32326M14.9695 8.32326C14.9705 8.32809 14.9714 8.33247 14.9722 8.3364L14.9695 8.32326ZM20.5479 10.8597C20.8349 10.7689 21.2145 10.6668 21.6582 10.5625C22.6913 10.3198 23.9896 10.0845 25.1008 9.96116L20.5479 10.8597ZM20.5479 10.8597C20.561 10.9665 20.5762 11.0853 20.5934 11.215C20.6756 11.8345 20.7993 12.6732 20.9448 13.5797C21.1197 14.6699 21.2343 15.3738 21.3186 15.8293L20.5479 10.8597ZM28.9613 22.686C28.9613 22.7138 28.9628 22.7431 28.965 22.7711C28.9626 22.7435 28.9613 22.7151 28.9613 22.686ZM39.2559 32.5805C39.3868 33.4008 39.5026 34.1565 39.5884 34.7436C38.7971 34.6924 37.1176 34.6692 35.571 34.6831L33.1535 34.705L32.7077 32.2878C32.7077 32.2878 32.7077 32.2878 32.7077 32.2877C32.5538 31.4532 32.4153 30.6887 32.3129 30.1116C32.5865 30.0916 32.8968 30.0697 33.2247 30.0475C34.3179 29.9731 35.502 29.8917 35.8555 29.8665L35.8556 29.8664C36.1987 29.8419 37.0122 29.8456 37.8109 29.87C38.1699 29.881 38.5105 29.8957 38.7834 29.9122C38.7895 29.9394 38.7958 29.9681 38.8023 29.9983C38.9129 30.5116 39.0571 31.335 39.2559 32.5805ZM38.675 29.5038C38.6743 29.5023 38.6739 29.5014 38.6739 29.5012C38.6738 29.501 38.6742 29.5018 38.675 29.5038ZM37.0023 19.1138L37.373 21.2943C36.0602 21.184 34.3446 21.1896 32.4813 21.3023C31.8418 21.3409 31.2532 21.3694 30.8112 21.3848C30.7997 21.3238 30.7877 21.2595 30.7752 21.1922C30.6645 20.5931 30.5212 19.7715 30.3724 18.873C30.2262 17.9901 30.0921 17.1838 29.9925 16.5889C30.0586 16.5817 30.1259 16.5742 30.1938 16.5661C30.9767 16.4737 32.6961 16.3795 34.2677 16.3256C35.0471 16.2988 35.7736 16.2825 36.3105 16.281C36.3687 16.2808 36.4241 16.2808 36.4766 16.281C36.4989 16.3868 36.523 16.5042 36.5486 16.632C36.6777 17.2761 36.8395 18.1558 37.0023 19.1138L37.0023 19.1138ZM20.5434 16.0135L20.5434 16.0135C20.5331 16.0161 20.537 16.0144 20.5517 16.0114C20.549 16.0121 20.5462 16.0128 20.5434 16.0135ZM56.8088 20.8182C56.8178 20.8137 56.8231 20.8116 56.8236 20.8117C56.8241 20.8118 56.8195 20.8141 56.8088 20.8182ZM52.4092 35.3189L51.4875 35.5666L51.4879 35.5683L52.4092 35.3189ZM51.8289 36.1329C51.7757 36.0951 51.642 35.9933 51.5391 35.8121L51.6393 36.2882H52.1685C52.1391 36.2811 52.0933 36.2685 52.0407 36.2478C52.0042 36.2334 51.9215 36.1988 51.8289 36.1329ZM53.2584 34.2695L52.7589 31.8955C52.5784 31.0377 52.4243 30.2478 52.3207 29.664C53.4812 29.6056 56.0391 29.3205 57.2565 29.1121C57.3539 29.0954 57.4424 29.0804 57.5228 29.0668C57.5259 29.0852 57.5292 29.1038 57.5324 29.1227C57.6268 29.6698 57.7569 30.4106 57.9 31.2133L57.9 31.2134C58.0531 32.0721 58.167 32.7947 58.2328 33.3039C58.2356 33.3254 58.2383 33.3464 58.2408 33.3669C58.1839 33.3819 58.1232 33.3975 58.059 33.4135C57.5658 33.5371 56.9169 33.6769 56.2321 33.8088C55.0723 34.0323 53.9151 34.2126 53.2584 34.2695ZM52.4856 34.3183C52.4741 34.3171 52.4625 34.316 52.4508 34.315V35.2882L52.7713 35.2208L52.7839 35.2182L52.9088 35.1919L53.3834 35.092C53.3804 35.0801 53.3776 35.0691 53.3749 35.0593L53.3745 35.0575C53.285 34.727 53.0617 34.5555 52.9882 34.5032C52.9606 34.4836 52.9338 34.4667 52.9088 34.4522C52.8494 34.4178 52.8 34.3973 52.7733 34.3868C52.6932 34.3553 52.6264 34.3412 52.6048 34.3367C52.5505 34.3254 52.5041 34.3203 52.4856 34.3183ZM58.7629 33.2075C58.7628 33.2076 58.7627 33.2076 58.7626 33.2076L58.7629 33.2075ZM51.3839 16.0638C50.0296 16.2117 48.9081 16.3427 48.8919 16.3546L54.8635 15.6344C54.3041 15.7226 52.7383 15.9159 51.3839 16.0638ZM56.3333 16.4531C56.3341 16.4531 56.3342 16.4531 56.3338 16.4531C56.3337 16.4531 56.3335 16.4531 56.3333 16.4531Z" fill="black" stroke="white" stroke-width="2"/>
</svg>
