<svg width="52" height="52" viewBox="0 0 52 52" fill="none" xmlns="http://www.w3.org/2000/svg">
<path d="M0.5 8C0.5 3.85786 3.85786 0.5 8 0.5H44C48.1421 0.5 51.5 3.85786 51.5 8V44C51.5 48.1421 48.1421 51.5 44 51.5H8C3.85786 51.5 0.5 48.1421 0.5 44V8Z" fill="white"/>
<path d="M0.5 8C0.5 3.85786 3.85786 0.5 8 0.5H44C48.1421 0.5 51.5 3.85786 51.5 8V44C51.5 48.1421 48.1421 51.5 44 51.5H8C3.85786 51.5 0.5 48.1421 0.5 44V8Z" stroke="#141414"/>
<path d="M38.7293 11.8358C38.7449 11.8521 38.7586 11.8665 38.7707 11.8793C38.8625 11.9758 38.8629 11.9762 38.8755 12.0054C38.8968 12.0544 38.9316 12.1777 38.9557 12.5399C39.0003 13.209 39.0002 14.4712 39 17.0575C39 17.236 39 17.4209 39 17.6123V21.8042L38.3593 21.164L36.8651 19.6712L36.72 19.5262L36.5149 19.5249L33.6786 19.5066L31.7969 19.4945C31.8641 19.3757 31.9272 19.2556 31.9782 19.1486L31.9782 19.1486L38.4127 11.6021L38.6415 11.1576L38.4129 11.6022C38.5097 11.6521 38.6661 11.7693 38.7293 11.8358ZM38.7293 11.8358L39.092 11.4916L38.7294 11.8358C38.7294 11.8358 38.7293 11.8358 38.7293 11.8358ZM16.3638 26.5941L16.3638 26.5941C15.4328 26.8445 14.7569 27.5641 14.5626 28.517C14.399 29.3192 14.6163 30.0773 15.1885 30.6824C15.4834 30.9942 15.7703 31.1943 16.0717 31.3143L16.3638 26.5941ZM16.3638 26.5941C17.2446 26.3572 18.204 26.6362 18.8119 27.3013C19.7721 28.3519 19.7128 29.8449 18.6663 30.8238C18.4177 31.0563 18.2068 31.1983 17.9861 31.2908M16.3638 26.5941L17.9861 31.2908M34.3638 26.5941L34.3638 26.5941C33.4328 26.8445 32.7569 27.5641 32.5626 28.517C32.399 29.3192 32.6163 30.0773 33.1885 30.6824C33.4834 30.9942 33.7703 31.1943 34.0717 31.3143L34.3638 26.5941ZM34.3638 26.5941C35.2446 26.3572 36.204 26.6362 36.8119 27.3013C37.7721 28.3519 37.7127 29.8449 36.6663 30.8238M34.3638 26.5941L36.6663 30.8238M17.9861 31.2908C17.764 31.3839 17.5034 31.4389 17.1399 31.4603L17.9861 31.2908ZM36.6663 30.8238C36.4177 31.0563 36.2068 31.1983 35.9861 31.2908C35.764 31.3839 35.5034 31.4389 35.1399 31.4603L36.6663 30.8238ZM13 20.3277V16.1167V10.8172L13.1319 10.5524C13.132 10.5524 13.132 10.5524 13.132 10.5524C13.2632 10.289 13.4919 10.1047 13.7294 10.039C13.7297 10.039 13.7299 10.0389 13.7301 10.0389C13.7552 10.0374 13.793 10.0358 13.8447 10.034C13.9475 10.0305 14.0941 10.027 14.2812 10.0236C14.6546 10.0168 15.1813 10.0104 15.8232 10.0048C17.1067 9.99364 18.8462 9.98572 20.7319 9.98372C21.0982 9.98333 21.4462 9.98291 21.7767 9.98251C24.9707 9.97862 26.5381 9.97671 27.3612 10.0319C27.8251 10.063 27.9717 10.1096 28.0255 10.1365C28.0333 10.1405 28.0388 10.1432 28.044 10.1466C28.0651 10.1604 28.0796 10.1844 28.2176 10.3411L28.2176 10.3412C28.3219 10.4596 28.3595 10.5114 28.3878 10.5744C28.4177 10.6408 28.4513 10.754 28.4757 10.9999C28.5261 11.5078 28.5238 12.4025 28.5109 14.2191L28.4892 17.2544L28.3765 17.4553C28.3765 17.4553 28.3765 17.4553 28.3764 17.4554C28.3177 17.5599 28.1533 17.7418 28.0445 17.8182L27.8683 17.9419L21.7913 17.9599L15.5571 17.9784L15.351 17.9791L15.2052 18.1247L13.6759 19.6525L13 20.3277ZM13.7062 10.0407C13.7062 10.0407 13.7071 10.0406 13.7091 10.0404L13.7062 10.0407ZM32.4766 11.0234H31.9766V11.5234H32.4766V11.0234ZM39.5 23.0105V22.3037L39 22.511L39.5 23.0105ZM25.2502 23.5714L25.2502 23.5714C27.0111 23.2383 28.7978 24.1385 29.5871 25.7614L29.5871 25.7614C30.1387 26.8955 30.1312 28.1084 29.5499 29.2958L29.5499 29.2958C29.347 29.7104 29.205 29.9061 28.7847 30.3219C27.9756 31.1226 27.1226 31.4744 26 31.4744C24.8774 31.4744 24.0244 31.1226 23.2153 30.3219L22.8636 30.6773L23.2153 30.3219C22.3513 29.4671 21.9534 28.438 22.0221 27.2596C22.1057 25.8246 22.925 24.5848 24.2103 23.9467L24.2103 23.9467C24.5793 23.7635 24.9824 23.622 25.2502 23.5714ZM24.4042 34.023L24.4042 34.023C24.8283 33.9747 25.6108 33.9651 26.4255 33.9902C27.239 34.0153 28.0345 34.0735 28.4831 34.1493L28.4831 34.1493C31.4377 34.6487 33.4657 35.9038 34.1923 37.4298C34.3331 37.7255 34.403 37.9219 34.4448 38.3021C34.4903 38.7152 34.5 39.3265 34.5 40.4526V42.0234H26H17.5003L17.5011 40.467C17.5018 38.8755 17.5302 38.3491 17.5925 38.0847L17.5926 38.0847C17.8241 37.1026 18.543 36.2013 19.7177 35.4805C20.892 34.7599 22.4923 34.2404 24.4042 34.023ZM24.3477 33.5262C20.4178 33.9731 17.6474 35.6731 17.1059 37.97L24.3477 33.5262ZM38.3043 37.0634C38.1744 36.5546 37.9042 35.8809 37.6239 35.3459C40.0208 35.8385 41.6379 37.0442 42.0483 38.3718C42.1438 38.681 42.1641 38.8508 42.1641 40.5972V42.0234H40.3513H38.5315L38.5045 40.1432C38.4744 38.0377 38.4574 37.6626 38.3043 37.0634ZM14.3661 35.387C14.0952 35.9025 13.8374 36.54 13.6958 37.0576C13.6682 37.1586 13.6529 37.3057 13.6414 37.4456C13.6285 37.6024 13.6167 37.8049 13.6059 38.0468C13.5843 38.5314 13.5662 39.1885 13.5531 39.9839L13.5199 41.9883H11.7617H10.0057L9.99137 40.7948C9.99137 40.7948 9.99137 40.7948 9.99137 40.7947C9.98538 40.2946 9.98813 39.8335 9.99799 39.4657C10.0082 39.0849 10.0255 38.8364 10.0418 38.7401L10.0418 38.7401C10.2822 37.3269 11.8483 35.9739 14.3661 35.387Z" fill="#141414" stroke="#141414"/>
</svg>
