<svg width="52" height="52" viewBox="0 0 52 52" fill="none" xmlns="http://www.w3.org/2000/svg">
<path d="M0.5 8C0.5 3.85786 3.85786 0.5 8 0.5H44C48.1421 0.5 51.5 3.85786 51.5 8V44C51.5 48.1421 48.1421 51.5 44 51.5H8C3.85786 51.5 0.5 48.1421 0.5 44V8Z" fill="white"/>
<path d="M0.5 8C0.5 3.85786 3.85786 0.5 8 0.5H44C48.1421 0.5 51.5 3.85786 51.5 8V44C51.5 48.1421 48.1421 51.5 44 51.5H8C3.85786 51.5 0.5 48.1421 0.5 44V8Z" stroke="#141414"/>
<path d="M17 36.5V38C17 38.425 16.8563 38.7812 16.5688 39.0688C16.2813 39.3563 15.925 39.5 15.5 39.5H14C13.575 39.5 13.2188 39.3563 12.9312 39.0688C12.6437 38.7812 12.5 38.425 12.5 38V26L15.65 17C15.8 16.55 16.0688 16.1875 16.4563 15.9125C16.8438 15.6375 17.275 15.5 17.75 15.5H34.25C34.725 15.5 35.1562 15.6375 35.5438 15.9125C35.9312 16.1875 36.2 16.55 36.35 17L39.5 26V38C39.5 38.425 39.3562 38.7812 39.0687 39.0688C38.7812 39.3563 38.425 39.5 38 39.5H36.5C36.075 39.5 35.7188 39.3563 35.4313 39.0688C35.1438 38.7812 35 38.425 35 38V36.5H17ZM16.7 23H35.3L33.725 18.5H18.275L16.7 23ZM19.25 32C19.875 32 20.4062 31.7812 20.8438 31.3438C21.2812 30.9062 21.5 30.375 21.5 29.75C21.5 29.125 21.2812 28.5938 20.8438 28.1562C20.4062 27.7188 19.875 27.5 19.25 27.5C18.625 27.5 18.0938 27.7188 17.6562 28.1562C17.2188 28.5938 17 29.125 17 29.75C17 30.375 17.2188 30.9062 17.6562 31.3438C18.0938 31.7812 18.625 32 19.25 32ZM32.75 32C33.375 32 33.9062 31.7812 34.3438 31.3438C34.7812 30.9062 35 30.375 35 29.75C35 29.125 34.7812 28.5938 34.3438 28.1562C33.9062 27.7188 33.375 27.5 32.75 27.5C32.125 27.5 31.5938 27.7188 31.1562 28.1562C30.7188 28.5938 30.5 29.125 30.5 29.75C30.5 30.375 30.7188 30.9062 31.1562 31.3438C31.5938 31.7812 32.125 32 32.75 32Z" fill="#141414"/>
</svg>
