<svg width="52" height="52" viewBox="0 0 52 52" fill="none" xmlns="http://www.w3.org/2000/svg">
<path d="M0.5 8C0.5 3.85786 3.85786 0.5 8 0.5H44C48.1421 0.5 51.5 3.85786 51.5 8V44C51.5 48.1421 48.1421 51.5 44 51.5H8C3.85786 51.5 0.5 48.1421 0.5 44V8Z" fill="white"/>
<path d="M0.5 8C0.5 3.85786 3.85786 0.5 8 0.5H44C48.1421 0.5 51.5 3.85786 51.5 8V44C51.5 48.1421 48.1421 51.5 44 51.5H8C3.85786 51.5 0.5 48.1421 0.5 44V8Z" stroke="#141414"/>
<path d="M15.5 41H36.5C38.1545 41 39.5 39.6545 39.5 38V17C39.5 15.3455 38.1545 14 36.5 14H33.5V11H30.5V14H21.5V11H18.5V14H15.5C13.8455 14 12.5 15.3455 12.5 17V38C12.5 39.6545 13.8455 41 15.5 41ZM24.5 35.621L18.9395 30.0605L21.0605 27.9395L24.5 31.379L30.9395 24.9395L33.0605 27.0605L24.5 35.621ZM15.5 18.5H36.5V21.5H15.5V18.5Z" fill="#141414"/>
</svg>
