<svg width="21" height="20" viewBox="0 0 21 20" fill="none" xmlns="http://www.w3.org/2000/svg">
<path d="M11.295 9.67996L13.7592 7.21579L5.8 2.74246C5.2725 2.45746 4.77833 2.41746 4.345 2.72913L11.295 9.67996ZM14.1792 12.565L16.7408 11.1241C17.2408 10.8441 17.515 10.4475 17.515 10.0075C17.515 9.56829 17.2408 9.17079 16.7417 8.89079L14.4225 7.58829L11.8117 10.1983L14.1792 12.565ZM3.91667 3.33496C3.86333 3.49913 3.83333 3.68246 3.83333 3.88329V16.1375C3.83333 16.455 3.90333 16.7283 4.03 16.9458L10.7775 10.1975L3.91667 3.33496ZM11.295 10.7141L4.585 17.425C4.71333 17.4741 4.85167 17.5 4.9975 17.5C5.2575 17.5 5.52833 17.4233 5.80417 17.27L13.5167 12.9391L11.295 10.7141Z" fill="#B8F1AD"/>
</svg>
