<svg width="52" height="52" viewBox="0 0 52 52" fill="none" xmlns="http://www.w3.org/2000/svg">
<path d="M0.5 8C0.5 3.85786 3.85786 0.5 8 0.5H44C48.1421 0.5 51.5 3.85786 51.5 8V44C51.5 48.1421 48.1421 51.5 44 51.5H8C3.85786 51.5 0.5 48.1421 0.5 44V8Z" fill="white"/>
<path d="M0.5 8C0.5 3.85786 3.85786 0.5 8 0.5H44C48.1421 0.5 51.5 3.85786 51.5 8V44C51.5 48.1421 48.1421 51.5 44 51.5H8C3.85786 51.5 0.5 48.1421 0.5 44V8Z" stroke="#141414"/>
<path fill-rule="evenodd" clip-rule="evenodd" d="M12.5 20C12.5 15.8579 15.8579 12.5 20 12.5H33.5V15.5H20C17.5147 15.5 15.5 17.5147 15.5 20V26C15.5 28.4853 17.5147 30.5 20 30.5H29.75C30.1642 30.5 30.5 30.1642 30.5 29.75V28.25C30.5 27.8358 30.1642 27.5 29.75 27.5H22.25C20.1789 27.5 18.5 25.8211 18.5 23.75V22.25C18.5 20.1789 20.1789 18.5 22.25 18.5H32C36.1421 18.5 39.5 21.8579 39.5 26V32C39.5 36.1421 36.1421 39.5 32 39.5H18.5V36.5H32C34.4853 36.5 36.5 34.4853 36.5 32V26C36.5 23.5147 34.4853 21.5 32 21.5H22.25C21.8358 21.5 21.5 21.8358 21.5 22.25V23.75C21.5 24.1642 21.8358 24.5 22.25 24.5H29.75C31.8211 24.5 33.5 26.1789 33.5 28.25V29.75C33.5 31.8211 31.8211 33.5 29.75 33.5H20C15.8579 33.5 12.5 30.1421 12.5 26V20Z" fill="#141414"/>
</svg>
